img]http://www.khaolaknews.com/wp-content/uploads/2011/03/f1.jpg[/img]

Formula One 2011 Season

BBc F1 Forum
Race 18: Abu Dharbi Grand Prix, 

Record Source: BBC One Red Button Service
Original Format: MPEG TS Stream
Date: Sunday 13th November 2011
Time: 15:10 to 16:10

***PLEASE NOTE*** For those who are unfamiliar with the BBC F1 FOrum, This is the POST RACE Anaylsis of the Abu Dharbi Grand Prix. DO NOT WATCH THIS UNTIL YOU KNOW THE RESULT OF THE RACE!!

Jake Humpfries ,Martin Brundle & David Coulthard present POST RACE coverage of the BBC Red Button F1 Forum for the 18th Race meeting of the 2011 Formula One season, The Abu Dharbi Grand Prix from yas Marina

Complete File Name		 : F1 2011 Race 18 Abu Dharbi BBC F1 Forum.mkv
Format                           : Matroska
Format version                   : Version 2
File size                        : 675 MiB
Duration                         : 57mn 53s
Overall bit rate                 : 1 630 Kbps
Writing application              : HandBrake 0.9.5
Writing library                  : libmkv 0.6.4.1

Video
ID                               : 1
Format                           : AVC
Format/Info                      : Advanced Video Codec
Format profile                   : Main@L3.0
Format settings, CABAC           : Yes
Format settings, ReFrames        : 4 frames
Codec ID                         : V_MPEG4/ISO/AVC
Duration                         : 57mn 53s
Bit rate                         : 1 500 Kbps
Width                            : 544 pixels
Height                           : 576 pixels
Display aspect ratio             : 16:9
Frame rate mode                  : Variable
Frame rate                       : 25.000 fps
Color space                      : YUV
Chroma subsampling               : 4:2:0
Bit depth                        : 8 bits
Scan type                        : Progressive
Bits/(Pixel*Frame)               : 0.191
Stream size                      : 609 MiB (90%)
Writing library                  : x264 core 112
Language                         : English
Color primaries                  : BT.601-6 525, BT.1358 525, BT.1700 NTSC, SMPTE 170M
Transfer characteristics         : BT.709-5, BT.1361
Matrix coefficients              : BT.601-6 525, BT.1358 525, BT.1700 NTSC, SMPTE 170M

Audio
ID                               : 2
Format                           : AC-3
Format/Info                      : Audio Coding 3
Mode extension                   : CM (complete main)
Codec ID                         : A_AC3
Duration                         : 57mn 53s
Bit rate mode                    : Constant
Bit rate                         : 128 Kbps
Channel(s)                       : 2 channels
Channel positions                : Front: L R
Sampling rate                    : 48.0 KHz
Bit depth                        : 16 bits
Compression mode                 : Lossy
Stream size                      : 53.0 MiB (8%)
Language                         : English





